<svg width="20" height="20" viewBox="0 0 20 20" fill="none" xmlns="http://www.w3.org/2000/svg">
<path d="M10.5955 13.9327C10.7549 13.7727 10.8346 13.5747 10.8346 13.3385V10.0052C10.8346 9.7691 10.7546 9.57132 10.5946 9.41188C10.4346 9.25243 10.2369 9.17243 10.0013 9.17188C9.76575 9.17132 9.56797 9.25132 9.40797 9.41188C9.24797 9.57243 9.16797 9.77021 9.16797 10.0052V13.3385C9.16797 13.5747 9.24797 13.7727 9.40797 13.9327C9.56797 14.0927 9.76575 14.1724 10.0013 14.1719C10.2369 14.1713 10.4349 14.0922 10.5955 13.9327ZM10.5955 7.26521C10.7549 7.10576 10.8346 6.90799 10.8346 6.67188C10.8346 6.43576 10.7546 6.23799 10.5946 6.07854C10.4346 5.9191 10.2369 5.8391 10.0013 5.83854C9.76575 5.83799 9.56797 5.91799 9.40797 6.07854C9.24797 6.2391 9.16797 6.43688 9.16797 6.67188C9.16797 6.90688 9.24797 7.10493 9.40797 7.26604C9.56797 7.42715 9.76575 7.50688 10.0013 7.50521C10.2369 7.50354 10.4349 7.42354 10.5955 7.26521ZM10.0013 18.3385C8.84853 18.3385 7.76519 18.1197 6.7513 17.6819C5.73741 17.2441 4.85547 16.6505 4.10547 15.901C3.35547 15.1516 2.76186 14.2697 2.32464 13.2552C1.88741 12.2408 1.66853 11.1574 1.66797 10.0052C1.66741 8.85299 1.8863 7.76965 2.32464 6.75521C2.76297 5.74076 3.35658 4.85882 4.10547 4.10938C4.85436 3.35993 5.7363 2.76632 6.7513 2.32854C7.7663 1.89076 8.84964 1.67188 10.0013 1.67188C11.153 1.67187 12.2363 1.89076 13.2513 2.32854C14.2663 2.76632 15.1482 3.35993 15.8971 4.10938C16.646 4.85882 17.2399 5.74076 17.6788 6.75521C18.1177 7.76965 18.3363 8.85299 18.3346 10.0052C18.333 11.1574 18.1141 12.2408 17.678 13.2552C17.2419 14.2697 16.6482 15.1516 15.8971 15.901C15.146 16.6505 14.2641 17.2444 13.2513 17.6827C12.2385 18.121 11.1552 18.3397 10.0013 18.3385ZM10.0013 16.6719C11.8624 16.6719 13.4388 16.026 14.7305 14.7344C16.0221 13.4427 16.668 11.8663 16.668 10.0052C16.668 8.1441 16.0221 6.56771 14.7305 5.27604C13.4388 3.98438 11.8624 3.33854 10.0013 3.33854C8.14019 3.33854 6.5638 3.98438 5.27214 5.27604C3.98047 6.56771 3.33464 8.1441 3.33464 10.0052C3.33464 11.8663 3.98047 13.4427 5.27214 14.7344C6.5638 16.026 8.14019 16.6719 10.0013 16.6719Z" fill="white"/>
</svg>
